<svg width="422" height="174" viewBox="0 0 422 174" fill="none" xmlns="http://www.w3.org/2000/svg">
<path d="M209.578 57H342.422C361.482 57 377 73.0804 377 93C377 112.92 361.482 129 342.422 129H209.578C190.518 129 175 112.92 175 93C175 73.0804 190.518 57 209.578 57Z" stroke="white" stroke-width="2"/>
<path d="M79.5776 45H212.422C231.482 45 247 61.0804 247 81C247 100.92 231.482 117 212.422 117H79.5776C60.5175 117 45 100.92 45 81C45 61.0804 60.5175 45 79.5776 45Z" stroke="white" stroke-width="2"/>
<path fill-rule="evenodd" clip-rule="evenodd" d="M238.65 56H209.578C189.929 56 174 72.5655 174 93C174 102.638 177.544 111.416 183.35 118H212.422C232.071 118 248 101.435 248 81C248 71.3619 244.456 62.5845 238.65 56Z" fill="white"/>
<path d="M85.7329 88.0784C86.3844 88.0784 86.9511 87.9608 87.4332 87.7255C87.9153 87.4771 88.2866 87.1307 88.5472 86.6863C88.8208 86.2418 88.9642 85.719 88.9772 85.1176H94.7036C94.7036 86.6732 94.3062 88.0458 93.5114 89.2353C92.7296 90.4118 91.6743 91.3333 90.3453 92C89.0163 92.6667 87.5179 93 85.8502 93C83.6482 93 81.8176 92.5294 80.3583 91.5882C78.899 90.634 77.8046 89.3464 77.0749 87.7255C76.3583 86.0915 76 84.268 76 82.2549V81.7647C76 79.7386 76.3583 77.915 77.0749 76.2941C77.8046 74.6601 78.8925 73.3725 80.3388 72.4314C81.798 71.4771 83.6221 71 85.8111 71C87.57 71 89.114 71.3399 90.443 72.0196C91.772 72.6863 92.8143 73.6471 93.57 74.902C94.3257 76.1569 94.7036 77.6667 94.7036 79.4314H88.9772C88.9642 78.7909 88.8339 78.2092 88.5863 77.6863C88.3518 77.1503 87.9935 76.7255 87.5114 76.4118C87.0293 76.085 86.4235 75.9216 85.6938 75.9216C84.6906 75.9216 83.9283 76.1961 83.4072 76.7451C82.899 77.2941 82.5537 78.0131 82.3713 78.902C82.1889 79.7778 82.0977 80.732 82.0977 81.7647V82.2549C82.0977 83.3007 82.1824 84.268 82.3518 85.1569C82.5342 86.0327 82.886 86.7386 83.4072 87.2745C83.9283 87.8105 84.7036 88.0784 85.7329 88.0784Z" fill="white"/>
<path d="M96.9121 81.8039C96.9121 79.7386 97.3029 77.8954 98.0847 76.2745C98.8664 74.6405 100.007 73.3529 101.505 72.4118C103.003 71.4706 104.827 71 106.977 71C109.166 71 111.01 71.4706 112.508 72.4118C114.02 73.3529 115.16 74.6405 115.928 76.2745C116.71 77.8954 117.101 79.7386 117.101 81.8039V82.2157C117.101 84.268 116.71 86.1111 115.928 87.7451C115.16 89.3791 114.026 90.6667 112.528 91.6078C111.029 92.536 109.192 93 107.016 93C104.853 93 103.016 92.536 101.505 91.6078C100.007 90.6667 98.8664 89.3791 98.0847 87.7451C97.3029 86.1111 96.9121 84.268 96.9121 82.2157V81.8039ZM103.029 82.2157C103.029 83.3007 103.153 84.2876 103.401 85.1765C103.648 86.0654 104.065 86.7712 104.651 87.2941C105.238 87.817 106.026 88.0784 107.016 88.0784C108.007 88.0784 108.795 87.817 109.381 87.2941C109.967 86.7712 110.384 86.0654 110.632 85.1765C110.879 84.2876 111.003 83.3007 111.003 82.2157V81.8039C111.003 80.7451 110.879 79.7712 110.632 78.8824C110.384 77.9804 109.967 77.2614 109.381 76.7255C108.795 76.1895 107.993 75.9216 106.977 75.9216C106 75.9216 105.218 76.1895 104.632 76.7255C104.059 77.2614 103.648 77.9804 103.401 78.8824C103.153 79.7712 103.029 80.7451 103.029 81.8039V82.2157Z" fill="white"/>
<path d="M126.521 92.6078H120.404V71.3922H126.15L126.521 76.4118V92.6078ZM132.658 77.1765C132.371 77.1373 132.026 77.1046 131.622 77.0784C131.218 77.0392 130.86 77.0196 130.547 77.0196C129.531 77.0196 128.691 77.1765 128.026 77.4902C127.375 77.7909 126.893 78.2484 126.58 78.8627C126.267 79.4641 126.098 80.2288 126.072 81.1569L124.899 80.549C124.899 78.6797 125.134 77.0261 125.603 75.5882C126.085 74.1503 126.775 73.0261 127.674 72.2157C128.586 71.4052 129.681 71 130.958 71C131.257 71 131.577 71.0196 131.915 71.0588C132.254 71.098 132.528 71.1634 132.736 71.2549L132.658 77.1765Z" fill="white"/>
<path d="M145.225 93C142.984 93 141.062 92.536 139.459 91.6078C137.87 90.6667 136.651 89.4183 135.805 87.8627C134.958 86.3072 134.534 84.5948 134.534 82.7255V81.9804C134.534 79.8758 134.932 77.9935 135.726 76.3333C136.521 74.6732 137.661 73.3725 139.147 72.4314C140.645 71.4771 142.443 71 144.541 71C146.586 71 148.306 71.4314 149.7 72.2941C151.107 73.1569 152.176 74.3725 152.906 75.9412C153.635 77.4967 154 79.3333 154 81.451V84.0392H137.055V79.9412H148.02V79.451C148.007 78.7451 147.876 78.1307 147.629 77.6078C147.381 77.0719 146.997 76.6601 146.476 76.3725C145.967 76.0719 145.309 75.9216 144.502 75.9216C143.537 75.9216 142.775 76.1961 142.215 76.7451C141.655 77.281 141.251 78.0065 141.003 78.9216C140.769 79.8235 140.651 80.8431 140.651 81.9804V82.7255C140.651 83.7843 140.847 84.7124 141.238 85.5098C141.629 86.3072 142.195 86.9346 142.938 87.3922C143.681 87.8366 144.573 88.0588 145.616 88.0588C146.593 88.0588 147.511 87.8824 148.371 87.5294C149.244 87.1634 149.993 86.5817 150.619 85.7843L153.511 89.1961C152.86 90.1503 151.831 91.0261 150.423 91.8235C149.016 92.6078 147.283 93 145.225 93Z" fill="white"/>
<path d="M275.762 101.161C276.416 101.161 276.984 101.045 277.468 100.814C277.952 100.569 278.324 100.229 278.585 99.7918C278.86 99.3548 279.004 98.8406 279.017 98.2494H284.76C284.76 99.7789 284.362 101.129 283.565 102.298C282.78 103.455 281.722 104.361 280.389 105.017C279.056 105.672 277.553 106 275.88 106C273.671 106 271.835 105.537 270.372 104.612C268.908 103.674 267.81 102.407 267.078 100.814C266.359 99.2069 266 97.4139 266 95.4345V94.9524C266 92.9602 266.359 91.1671 267.078 89.5733C267.81 87.9666 268.901 86.7005 270.352 85.7751C271.816 84.8368 273.645 84.3676 275.841 84.3676C277.605 84.3676 279.154 84.7018 280.487 85.3702C281.82 86.0257 282.865 86.9704 283.623 88.2044C284.381 89.4383 284.76 90.9229 284.76 92.6581H279.017C279.004 92.0283 278.873 91.4563 278.625 90.9422C278.389 90.4152 278.03 89.9974 277.546 89.6889C277.063 89.3676 276.455 89.2069 275.723 89.2069C274.717 89.2069 273.952 89.4769 273.43 90.0167C272.92 90.5566 272.574 91.2635 272.391 92.1375C272.208 92.9987 272.116 93.937 272.116 94.9524V95.4345C272.116 96.4627 272.201 97.4139 272.371 98.2879C272.554 99.1491 272.907 99.8432 273.43 100.37C273.952 100.897 274.73 101.161 275.762 101.161Z" fill="white"/>
<path d="M286.976 94.991C286.976 92.9602 287.368 91.1478 288.152 89.554C288.936 87.9473 290.079 86.6812 291.582 85.7558C293.085 84.8303 294.915 84.3676 297.071 84.3676C299.267 84.3676 301.116 84.8303 302.619 85.7558C304.135 86.6812 305.279 87.9473 306.05 89.554C306.834 91.1478 307.226 92.9602 307.226 94.991V95.3959C307.226 97.4139 306.834 99.2262 306.05 100.833C305.279 102.44 304.142 103.706 302.639 104.631C301.136 105.544 299.293 106 297.111 106C294.941 106 293.098 105.544 291.582 104.631C290.079 103.706 288.936 102.44 288.152 100.833C287.368 99.2262 286.976 97.4139 286.976 95.3959V94.991ZM293.111 95.3959C293.111 96.4627 293.236 97.4332 293.484 98.3072C293.732 99.1812 294.15 99.8753 294.739 100.389C295.327 100.904 296.117 101.161 297.111 101.161C298.104 101.161 298.894 100.904 299.483 100.389C300.071 99.8753 300.489 99.1812 300.737 98.3072C300.985 97.4332 301.11 96.4627 301.11 95.3959V94.991C301.11 93.9499 300.985 92.9923 300.737 92.1183C300.489 91.2314 300.071 90.5244 299.483 89.9974C298.894 89.4704 298.091 89.2069 297.071 89.2069C296.091 89.2069 295.307 89.4704 294.719 89.9974C294.144 90.5244 293.732 91.2314 293.484 92.1183C293.236 92.9923 293.111 93.9499 293.111 94.991V95.3959Z" fill="white"/>
<path d="M322.889 76H329.044V105.614H323.516L322.889 100.91V76ZM309.657 95.0296C309.657 92.9087 309.977 91.0514 310.617 89.4576C311.271 87.8509 312.212 86.6041 313.44 85.7172C314.682 84.8175 316.191 84.3676 317.969 84.3676C319.615 84.3676 320.994 84.8432 322.105 85.7943C323.216 86.7326 324.091 88.0116 324.732 89.6311C325.372 91.2506 325.816 93.0887 326.065 95.1452V95.4923C325.816 97.4203 325.372 99.1812 324.732 100.775C324.091 102.369 323.216 103.641 322.105 104.593C320.994 105.531 319.602 106 317.929 106C316.165 106 314.669 105.544 313.44 104.631C312.212 103.706 311.271 102.446 310.617 100.852C309.977 99.2584 309.657 97.4524 309.657 95.4345V95.0296ZM315.793 95.4345C315.793 96.4884 315.904 97.446 316.126 98.3072C316.361 99.1684 316.747 99.856 317.282 100.37C317.831 100.871 318.57 101.122 319.498 101.122C320.399 101.122 321.144 100.916 321.732 100.505C322.334 100.094 322.778 99.5219 323.065 98.7892C323.366 98.0437 323.529 97.1825 323.556 96.2057V94.4319C323.542 93.5964 323.444 92.8573 323.261 92.2147C323.092 91.5591 322.843 91.0129 322.517 90.5758C322.19 90.1388 321.778 89.8111 321.282 89.5925C320.785 89.3612 320.203 89.2455 319.537 89.2455C318.622 89.2455 317.89 89.5026 317.341 90.0167C316.792 90.518 316.394 91.2057 316.145 92.0797C315.91 92.9409 315.793 93.9242 315.793 95.0296V95.4345Z" fill="white"/>
<path d="M343.198 106C340.95 106 339.023 105.544 337.415 104.631C335.821 103.706 334.599 102.478 333.749 100.949C332.9 99.419 332.475 97.7352 332.475 95.8972V95.1645C332.475 93.0951 332.874 91.2442 333.671 89.6118C334.468 87.9794 335.612 86.7005 337.101 85.7751C338.604 84.8368 340.408 84.3676 342.512 84.3676C344.564 84.3676 346.289 84.7918 347.687 85.6401C349.099 86.4884 350.17 87.6838 350.902 89.2262C351.634 90.7558 352 92.5617 352 94.644V97.1889H335.004V93.1594H346.001V92.6774C345.988 91.9833 345.858 91.3792 345.609 90.865C345.361 90.338 344.975 89.9332 344.453 89.6504C343.943 89.3548 343.283 89.2069 342.473 89.2069C341.506 89.2069 340.741 89.4769 340.179 90.0167C339.617 90.5437 339.212 91.2571 338.964 92.1568C338.729 93.0437 338.611 94.0463 338.611 95.1645V95.8972C338.611 96.9383 338.807 97.8509 339.199 98.635C339.591 99.419 340.16 100.036 340.904 100.486C341.649 100.923 342.545 101.141 343.59 101.141C344.57 101.141 345.492 100.968 346.354 100.621C347.23 100.261 347.981 99.6889 348.609 98.9049L351.51 102.26C350.856 103.198 349.824 104.059 348.413 104.843C347.001 105.614 345.263 106 343.198 106Z" fill="white"/>
</svg>
